<svg id="Capa_1" data-name="Capa 1" xmlns="http://www.w3.org/2000/svg" width="104.33" height="88.34" viewBox="0 0 104.33 88.34">
  <g>
    <path d="M2.54,81.28h104.2c.6,9.2-7.11,17.32-17,17.4q-35.1.27-70.19,0C9.63,98.61,1.9,90.46,2.54,81.28Z" transform="translate(-2.5 -10.47)" fill="#b72f24"/>
    <path d="M106.83,71.39H2.66c-1-8.54,6.16-16,16.79-17.32.9-4.75,4.21-6.26,9-5.8a1.8,1.8,0,0,1,.08-.21l11.39-27a18.87,18.87,0,0,1,4.84-7.41c3-2.63,8.13-4.33,12.76-2.23,3.19,1.44,5.4,4.94,7.5,8.85l.16-.37a13.91,13.91,0,0,1,2.44-4c4.1-4.31,11.47-3.44,15.52,0,3.46,3,5.81,5.18,8.09,7.3,2.49,2.32,4.84,4.52,8.57,7.67a5.54,5.54,0,0,1,.61,7.92,5.8,5.8,0,0,1-8.08.59c-4-3.33-6.52-5.73-9-8-2.17-2-4.42-4.12-7.66-6.92a12.2,12.2,0,0,1-3.45,5c-3,2.32-7.3,2.74-10.29,2.14a8.58,8.58,0,0,1-6-4.15c-.15-.27-.32-.61-.52-1a40.8,40.8,0,0,0-2.69-4.58,2,2,0,0,0-.32.2,10.08,10.08,0,0,0-1.86,3.31L40.84,48.24H81c5.79,0,6.77.65,8.92,5.84C100.36,55.45,107,62.08,106.83,71.39Z" transform="translate(-2.5 -10.47)" fill="#b72f24"/>
  </g>
</svg>
