<svg id="Capa_1" data-name="Capa 1" xmlns="http://www.w3.org/2000/svg" width="109.62" height="95.64" viewBox="0 0 109.62 95.64">
  <g>
    <g>
      <path d="M9,88.74H113.2c.6,9.2-7.1,17.32-17,17.4q-35.1.27-70.19,0C16.09,106.07,8.36,97.92,9,88.74Z" transform="translate(-3.67 -10.64)" fill="#b72f24"/>
      <path d="M113.29,76.85H9.12c-1-8.54,6.16-16,16.79-17.32.9-4.75,4.21-6.26,9-5.8a1.8,1.8,0,0,1,.08-.21l11.39-27a18.87,18.87,0,0,1,4.84-7.41c3-2.63,8.13-4.33,12.76-2.23,3.19,1.44,5.4,4.94,7.5,8.85l.16-.37a13.91,13.91,0,0,1,2.44-4c4.1-4.31,11.47-3.44,15.52,0,3.46,3,5.81,5.18,8.09,7.3,2.49,2.32,4.84,4.52,8.57,7.67a5.54,5.54,0,0,1,.61,7.92,5.8,5.8,0,0,1-8.08.59c-4-3.33-6.52-5.73-9-8-2.17-2-4.42-4.12-7.66-6.92a12.2,12.2,0,0,1-3.45,5c-3,2.32-7.3,2.74-10.29,2.14a8.58,8.58,0,0,1-6-4.15c-.15-.27-.32-.61-.52-1a40.8,40.8,0,0,0-2.69-4.58,2,2,0,0,0-.32.2A10.08,10.08,0,0,0,57,30.81L47.3,53.7H87.5c5.79,0,6.77.65,8.92,5.84C106.82,60.91,113.42,67.54,113.29,76.85Z" transform="translate(-3.67 -10.64)" fill="#b72f24"/>
    </g>
    <g>
      <path d="M3.71,83.44h104.2c.6,9.21-7.11,17.33-17,17.4q-35.1.27-70.19,0C10.8,100.77,3.07,92.62,3.71,83.44Z" transform="translate(-3.67 -10.64)" fill="#fff"/>
      <path d="M108,71.56H3.83C2.78,63,10,55.57,20.62,54.24c.9-4.75,4.21-6.26,9-5.8a1.8,1.8,0,0,1,.08-.21l11.39-27a18.87,18.87,0,0,1,4.84-7.41c3-2.63,8.13-4.33,12.76-2.23,3.19,1.44,5.4,4.94,7.5,8.85l.16-.37a13.91,13.91,0,0,1,2.44-4c4.1-4.31,11.47-3.44,15.52,0,3.46,3,5.81,5.18,8.09,7.3,2.49,2.32,4.84,4.52,8.57,7.67a5.54,5.54,0,0,1,.61,7.92,5.8,5.8,0,0,1-8.08.59c-4-3.33-6.52-5.73-9-8-2.17-2-4.42-4.12-7.66-6.92a12.2,12.2,0,0,1-3.45,5c-3,2.32-7.3,2.74-10.29,2.14a8.58,8.58,0,0,1-6-4.15c-.15-.27-.32-.61-.52-1A40.8,40.8,0,0,0,53.85,22a2,2,0,0,0-.32.2,10.08,10.08,0,0,0-1.86,3.31L42,48.41h40.2c5.79,0,6.77.65,8.92,5.84C101.53,55.62,108.13,62.25,108,71.56Z" transform="translate(-3.67 -10.64)" fill="#fff"/>
    </g>
  </g>
</svg>
